<?xml version="1.0" standalone="no"?>
<!DOCTYPE svg PUBLIC "-//W3C//DTD SVG 20010904//EN"
 "http://www.w3.org/TR/2001/REC-SVG-20010904/DTD/svg10.dtd">
<svg version="1.0" xmlns="http://www.w3.org/2000/svg"
 width="401.000000pt" height="401.000000pt" viewBox="0 0 401.000000 401.000000"
 preserveAspectRatio="xMidYMid meet">
<metadata>
Created by potrace 1.14, written by Peter Selinger 2001-2017
</metadata>
<g transform="translate(0.000000,401.000000) scale(0.100000,-0.100000)"
fill="#000000" stroke="none">
<path d="M2299 3567 c-85 -32 -199 -130 -256 -220 -24 -38 -25 -38 -78 -36
-30 2 -58 0 -61 -4 -4 -3 -15 -2 -25 4 -11 5 -19 6 -19 2 0 -4 -35 -8 -78 -9
-112 -2 -212 -8 -212 -14 0 -3 -10 -5 -22 -6 -13 0 -48 -4 -78 -7 -50 -6 -62
-3 -140 35 -47 23 -88 41 -92 40 -5 -1 -8 3 -8 8 0 5 -3 9 -7 8 -5 -1 -21 4
-36 10 -16 7 -34 12 -41 12 -7 0 -16 3 -20 8 -4 4 -11 7 -14 8 -4 0 -47 13
-97 29 -75 23 -133 34 -190 36 -42 1 -103 -14 -129 -32 -55 -38 -93 -97 -149
-234 -55 -135 -59 -324 -11 -524 l16 -66 -46 -92 c-25 -50 -46 -94 -46 -97 0
-2 -5 -17 -12 -33 -6 -15 -12 -30 -13 -33 -1 -3 -4 -12 -8 -20 -13 -33 -27
-88 -37 -140 -16 -84 -20 -109 -25 -184 -5 -73 -13 -86 -51 -81 -13 1 -24 -1
-24 -4 0 -3 -24 -6 -53 -6 -48 -1 -103 -8 -189 -24 -34 -6 -53 -80 -20 -82 23
-2 77 -1 77 1 0 3 119 10 175 11 66 0 92 -3 85 -9 -2 -3 0 -12 4 -21 5 -9 12
-38 15 -66 4 -27 14 -70 22 -94 21 -62 13 -76 -53 -91 -31 -7 -76 -21 -100
-31 -39 -17 -44 -22 -41 -46 3 -27 5 -28 53 -26 28 1 82 5 121 8 l71 7 33 -53
c18 -30 48 -77 66 -106 l33 -51 -22 -15 c-12 -8 -45 -26 -74 -40 -67 -34 -179
-113 -186 -131 -3 -8 -3 -24 0 -35 8 -33 50 -26 128 20 88 52 205 109 224 109
7 0 37 -20 65 -43 28 -24 60 -49 71 -55 58 -33 59 -34 25 -101 -17 -34 -32
-71 -34 -84 -1 -13 -5 -27 -8 -32 -5 -10 -3 -57 5 -120 14 -96 103 -217 194
-261 68 -34 193 -47 193 -20 0 12 10 16 48 16 27 0 62 8 83 19 28 15 39 17 55
8 10 -6 64 -11 119 -12 86 0 107 4 150 25 94 46 176 155 184 243 1 5 38 5 82
2 66 -6 272 -15 349 -16 9 0 27 -25 43 -57 68 -145 200 -208 370 -179 40 7 54
5 81 -11 81 -48 212 -68 279 -43 14 5 28 7 31 4 3 -4 6 -1 6 5 0 7 6 12 13 12
25 0 123 98 147 147 33 68 39 83 45 121 8 46 8 46 5 52 -1 3 -3 19 -5 35 -4
30 -12 70 -15 70 -1 0 -4 11 -6 25 -3 13 -9 29 -14 34 -18 18 -10 32 42 71 28
22 78 65 110 97 l58 57 47 -16 c25 -9 85 -35 132 -58 111 -54 134 -60 153 -37
13 14 17 49 6 56 -2 2 -19 14 -38 28 -19 14 -75 47 -125 73 -49 26 -93 52 -96
58 -4 5 9 43 28 85 20 42 36 81 37 88 1 7 11 23 21 34 17 19 27 21 77 16 32
-4 63 -9 70 -11 7 -2 43 -6 80 -9 50 -3 70 -1 79 10 28 34 -17 61 -161 96 -47
12 -91 26 -98 31 -9 8 -12 25 -7 61 3 28 8 76 11 106 3 30 11 61 17 68 8 10
40 13 130 10 65 -2 121 -6 124 -11 2 -4 10 -4 16 0 7 4 26 8 42 8 26 0 30 4
33 31 3 29 0 33 -42 49 -25 10 -52 15 -60 12 -8 -3 -17 -3 -21 1 -3 4 -39 8
-78 9 -94 3 -137 8 -147 19 -4 5 -10 32 -13 59 -13 112 -71 322 -98 358 -1 1
14 32 34 68 85 154 82 319 -7 434 -26 34 -31 49 -33 105 -3 97 -12 158 -34
234 -42 142 -88 211 -158 237 -43 17 -223 9 -277 -11 -13 -5 -24 -7 -24 -5 0
3 -16 -1 -35 -9 -19 -8 -35 -13 -35 -11 0 2 -15 -2 -34 -10 -18 -8 -36 -11
-40 -8 -3 4 -6 1 -6 -5 0 -7 -3 -11 -7 -10 -11 3 -86 -23 -97 -32 -5 -5 -14
-6 -21 -4 -7 3 -16 0 -20 -6 -4 -7 -34 18 -77 65 -96 103 -175 147 -272 152
-44 2 -85 -2 -107 -10z"/>
</g>
</svg>
